<svg width="24" height="20" viewBox="0 0 24 20" fill="none" xmlns="http://www.w3.org/2000/svg">
<path d="M23.7063 10.7075L14.7068 19.7071C14.5191 19.8947 14.2647 20.0001 13.9993 20.0001C13.734 20.0001 13.4795 19.8947 13.2918 19.7071C13.1042 19.5195 12.9988 19.265 12.9988 18.9996C12.9988 18.7343 13.1042 18.4798 13.2918 18.2922L20.5852 11L0.999949 11C0.734746 11 0.480404 10.8947 0.292877 10.7071C0.10535 10.5196 -1.79484e-06 10.2653 -1.74847e-06 10.0001C-1.7021e-06 9.73486 0.10535 9.48052 0.292877 9.293C0.480405 9.10547 0.734746 9.00012 0.99995 9.00012L20.5852 9.00012L13.2918 1.70797C13.1042 1.52034 12.9988 1.26586 12.9988 1.00051C12.9988 0.735158 13.1042 0.480675 13.2918 0.293044C13.4795 0.105413 13.734 2.40132e-06 13.9993 2.44772e-06C14.2647 2.49411e-06 14.5192 0.105413 14.7068 0.293044L23.7063 9.29261C23.7993 9.38547 23.8731 9.49576 23.9234 9.61715C23.9737 9.73854 23.9996 9.86866 23.9996 10.0001C23.9996 10.1315 23.9737 10.2616 23.9234 10.383C23.8731 10.5044 23.7993 10.6147 23.7063 10.7075Z" fill="black"/>
</svg>
