<svg width="24" height="20" viewBox="0 0 24 20" fill="none" xmlns="http://www.w3.org/2000/svg">
<path d="M0.292488 9.29246L9.29205 0.292904C9.47968 0.105272 9.73416 -0.000138569 9.99951 -0.000138546C10.2649 -0.000138523 10.5193 0.105272 10.707 0.292904C10.8946 0.480536 11 0.735019 11 1.00037C11 1.26572 10.8946 1.5202 10.707 1.70784L3.41359 8.99998L22.9989 8.99998C23.2641 8.99998 23.5184 9.10533 23.706 9.29286C23.8935 9.48039 23.9988 9.73473 23.9988 9.99993C23.9988 10.2651 23.8935 10.5195 23.7059 10.707C23.5184 10.8945 23.2641 10.9999 22.9989 10.9999L3.41359 10.9999L10.707 18.292C10.8946 18.4797 11 18.7341 11 18.9995C11 19.2648 10.8946 19.5193 10.707 19.707C10.5193 19.8946 10.2649 20 9.99951 20C9.73416 20 9.47968 19.8946 9.29205 19.707L0.292488 10.7074C0.199515 10.6145 0.12576 10.5042 0.0754385 10.3829C0.0251156 10.2615 -0.000783019 10.1313 -0.000783008 9.99993C-0.000782996 9.86852 0.0251156 9.7384 0.0754386 9.61701C0.12576 9.49562 0.199515 9.38533 0.292488 9.29246Z" fill="black"/>
</svg>
