<svg width="29" height="25" viewBox="0 0 29 25" fill="none" xmlns="http://www.w3.org/2000/svg">
<path d="M28.9967 7.28048C28.9447 9.08321 28.2035 10.7974 26.9256 12.07L22.4273 16.5708C21.7722 17.2296 20.9929 17.7518 20.1345 18.1073C19.2762 18.4628 18.3558 18.6446 17.4268 18.642H17.4203C16.4754 18.6413 15.5402 18.4513 14.67 18.0831C13.7997 17.7149 13.0121 17.1761 12.3536 16.4984C11.6951 15.8207 11.1791 15.018 10.8361 14.1375C10.4931 13.2571 10.33 12.3168 10.3564 11.3723C10.3642 11.0976 10.4807 10.8373 10.6803 10.6485C10.88 10.4598 11.1465 10.3581 11.4211 10.3658C11.6958 10.3736 11.9561 10.4901 12.1449 10.6897C12.3336 10.8894 12.4353 11.1559 12.4276 11.4305C12.4087 12.0984 12.5239 12.7632 12.7664 13.3858C13.0088 14.0084 13.3736 14.576 13.8392 15.0552C14.3047 15.5344 14.8616 15.9154 15.4769 16.1757C16.0922 16.4361 16.7535 16.5704 17.4216 16.5708C18.0784 16.5725 18.729 16.444 19.3358 16.1927C19.9425 15.9414 20.4935 15.5723 20.9568 15.1068L25.455 10.6085C26.3831 9.66877 26.9017 8.39998 26.8976 7.0792C26.8934 5.75841 26.3669 4.49289 25.433 3.55895C24.499 2.62501 23.2335 2.09849 21.9127 2.09436C20.592 2.09023 19.3232 2.60881 18.3834 3.53689L16.9595 4.9608C16.7637 5.14681 16.503 5.24897 16.233 5.24552C15.9629 5.24206 15.7049 5.13325 15.514 4.94229C15.323 4.75133 15.2142 4.49333 15.2107 4.22329C15.2073 3.95325 15.3094 3.69255 15.4955 3.49676L16.9194 2.07285C17.5763 1.41569 18.3563 0.894391 19.2147 0.538726C20.0731 0.183061 20.9933 0 21.9225 0C22.8517 0 23.7718 0.183061 24.6302 0.538726C25.4887 0.894391 26.2686 1.41569 26.9256 2.07285C27.606 2.75498 28.1405 3.56843 28.4966 4.46371C28.8526 5.35898 29.0228 6.31735 28.9967 7.28048ZM12.0392 19.8924L10.6153 21.3163C10.1509 21.7838 9.59818 22.1544 8.98929 22.4064C8.38039 22.6584 7.72748 22.7868 7.0685 22.7843C6.07992 22.7835 5.11376 22.4897 4.29209 21.94C3.47042 21.3903 2.83012 20.6094 2.45208 19.696C2.07404 18.7825 1.97524 17.7775 2.16815 16.808C2.36106 15.8384 2.83703 14.9477 3.53592 14.2486L8.0264 9.75031C8.73368 9.0393 9.63841 8.55739 10.6231 8.36716C11.6078 8.17693 12.6269 8.28718 13.5481 8.68358C14.4693 9.07998 15.2501 9.74422 15.7889 10.59C16.3278 11.4358 16.5999 12.4241 16.5699 13.4266C16.5621 13.7012 16.6638 13.9677 16.8526 14.1674C17.0413 14.367 17.3016 14.4836 17.5763 14.4913C17.8509 14.499 18.1174 14.3973 18.3171 14.2086C18.5168 14.0198 18.6333 13.7595 18.641 13.4848C18.6659 12.5232 18.4951 11.5666 18.1391 10.6729C17.783 9.77932 17.2492 8.96734 16.5699 8.28627C15.2433 6.96026 13.4444 6.21536 11.5687 6.21536C9.69303 6.21536 7.89413 6.96026 6.56755 8.28627L2.07188 12.7845C1.08321 13.7728 0.40968 15.032 0.136412 16.4029C-0.136856 17.7738 0.00240004 19.195 0.536582 20.4868C1.07076 21.7787 1.9759 22.8831 3.1376 23.6607C4.29929 24.4383 5.66542 24.854 7.06332 24.8554C7.99258 24.8581 8.91314 24.6764 9.7717 24.3209C10.6303 23.9654 11.4098 23.4431 12.0651 22.7843L13.489 21.3603C13.6566 21.1629 13.7442 20.9099 13.7344 20.6512C13.7247 20.3924 13.6183 20.1467 13.4364 19.9624C13.2544 19.7782 13.01 19.6688 12.7514 19.6559C12.4928 19.6429 12.2387 19.7273 12.0392 19.8924Z" fill="black"/>
</svg>
