<svg width="27" height="27" viewBox="0 0 27 27" fill="none" xmlns="http://www.w3.org/2000/svg">
<path d="M26.6959 25.228L20.2035 18.7369C22.0852 16.4778 23.0236 13.5801 22.8233 10.6467C22.623 7.71331 21.2995 4.97006 19.1282 2.98761C16.9568 1.00516 14.1048 -0.0638515 11.1653 0.00295253C8.22587 0.0697565 5.42533 1.26724 3.34628 3.34628C1.26724 5.42533 0.0697565 8.22587 0.00295253 11.1653C-0.0638515 14.1048 1.00516 16.9568 2.98761 19.1282C4.97006 21.2995 7.71331 22.623 10.6467 22.8233C13.5801 23.0236 16.4778 22.0852 18.7369 20.2035L25.228 26.6959C25.3244 26.7922 25.4388 26.8687 25.5648 26.9209C25.6907 26.973 25.8257 26.9999 25.962 26.9999C26.0983 26.9999 26.2332 26.973 26.3591 26.9209C26.4851 26.8687 26.5995 26.7922 26.6959 26.6959C26.7922 26.5995 26.8687 26.4851 26.9209 26.3591C26.973 26.2332 26.9999 26.0983 26.9999 25.962C26.9999 25.8257 26.973 25.6907 26.9209 25.5648C26.8687 25.4388 26.7922 25.3244 26.6959 25.228ZM2.10332 11.4393C2.10332 9.59283 2.65087 7.78781 3.67672 6.25251C4.70257 4.71722 6.16065 3.5206 7.86658 2.81398C9.57251 2.10737 11.4497 1.92248 13.2607 2.28271C15.0717 2.64294 16.7352 3.53211 18.0408 4.83777C19.3465 6.14343 20.2357 7.80695 20.5959 9.61795C20.9561 11.429 20.7713 13.3061 20.0646 15.012C19.358 16.718 18.1614 18.176 16.6261 19.2019C15.0908 20.2278 13.2858 20.7753 11.4393 20.7753C8.96409 20.7726 6.59105 19.7881 4.8408 18.0378C3.09056 16.2876 2.10607 13.9145 2.10332 11.4393Z" fill="black"/>
</svg>
