<svg width="17" height="21" viewBox="0 0 17 21" fill="none" xmlns="http://www.w3.org/2000/svg">
<path d="M13.31 9.4625C14.0999 8.70217 14.6445 7.72312 14.8739 6.65104C15.1034 5.57895 15.0072 4.46275 14.5977 3.44573C14.1882 2.42872 13.4841 1.55729 12.5758 0.943316C11.6675 0.329344 10.5964 0.000849218 9.5 0H1C0.734784 0 0.48043 0.105357 0.292893 0.292893C0.105357 0.48043 0 0.734784 0 1V20C0 20.2652 0.105357 20.5196 0.292893 20.7071C0.48043 20.8946 0.734784 21 1 21H11C12.3868 21 13.7309 20.5196 14.8035 19.6404C15.876 18.7613 16.611 17.5378 16.8832 16.1779C17.1555 14.8181 16.9483 13.4059 16.2968 12.1816C15.6454 10.9573 14.5899 9.99643 13.31 9.4625ZM2 2H9.5C10.4283 2 11.3185 2.36875 11.9749 3.02513C12.6313 3.6815 13 4.57174 13 5.5C13 6.42826 12.6313 7.3185 11.9749 7.97487C11.3185 8.63125 10.4283 9 9.5 9H2V2ZM11 19H2V11H11C12.0609 11 13.0783 11.4214 13.8284 12.1716C14.5786 12.9217 15 13.9391 15 15C15 16.0609 14.5786 17.0783 13.8284 17.8284C13.0783 18.5786 12.0609 19 11 19Z" fill="black"/>
</svg>
