<svg width="18" height="23" viewBox="0 0 18 23" fill="none" xmlns="http://www.w3.org/2000/svg">
<path d="M18 22C18 22.2652 17.8946 22.5196 17.7071 22.7071C17.5196 22.8946 17.2652 23 17 23H1C0.734784 23 0.48043 22.8946 0.292893 22.7071C0.105357 22.5196 0 22.2652 0 22C0 21.7348 0.105357 21.4804 0.292893 21.2929C0.48043 21.1054 0.734784 21 1 21H17C17.2652 21 17.5196 21.1054 17.7071 21.2929C17.8946 21.4804 18 21.7348 18 22ZM9 19C11.121 18.9977 13.1545 18.1541 14.6543 16.6543C16.1541 15.1545 16.9977 13.121 17 11V1C17 0.734784 16.8946 0.48043 16.7071 0.292893C16.5196 0.105357 16.2652 0 16 0C15.7348 0 15.4804 0.105357 15.2929 0.292893C15.1054 0.48043 15 0.734784 15 1V11C15 12.5913 14.3679 14.1174 13.2426 15.2426C12.1174 16.3679 10.5913 17 9 17C7.4087 17 5.88258 16.3679 4.75736 15.2426C3.63214 14.1174 3 12.5913 3 11V1C3 0.734784 2.89464 0.48043 2.70711 0.292893C2.51957 0.105357 2.26522 0 2 0C1.73478 0 1.48043 0.105357 1.29289 0.292893C1.10536 0.48043 1 0.734784 1 1V11C1.00232 13.121 1.84591 15.1545 3.3457 16.6543C4.84549 18.1541 6.87898 18.9977 9 19Z" fill="black"/>
</svg>
