<svg width="18" height="20" viewBox="0 0 18 20" fill="none" xmlns="http://www.w3.org/2000/svg">
<path d="M18 1C18 1.26522 17.8946 1.51957 17.7071 1.70711C17.5196 1.89464 17.2652 2 17 2H12.7213L7.3875 18H11C11.2652 18 11.5196 18.1054 11.7071 18.2929C11.8946 18.4804 12 18.7348 12 19C12 19.2652 11.8946 19.5196 11.7071 19.7071C11.5196 19.8946 11.2652 20 11 20H1C0.734784 20 0.48043 19.8946 0.292893 19.7071C0.105357 19.5196 0 19.2652 0 19C0 18.7348 0.105357 18.4804 0.292893 18.2929C0.48043 18.1054 0.734784 18 1 18H5.27875L10.6125 2H7C6.73478 2 6.48043 1.89464 6.29289 1.70711C6.10536 1.51957 6 1.26522 6 1C6 0.734784 6.10536 0.48043 6.29289 0.292893C6.48043 0.105357 6.73478 0 7 0H17C17.2652 0 17.5196 0.105357 17.7071 0.292893C17.8946 0.48043 18 0.734784 18 1Z" fill="black"/>
</svg>
